# xmcd
#
# Track frame offsets:
#   150
#   18132
#   35554
#   56300
#   73775
#   93041
#   107364
#   124949
#   142627
#   158450
#   176636
#   198774
#   214866
#   231746
#
# Disc length: 3448 seconds
#
# Revision: 0
# Processed by: cddbd v1.5.2PL0 Copyright (c) Steve Scherf et al.
# Submitted via: uFREEDB ActiveX Control 1.5
#
DISCID=af0d760e
DTITLE=BELO - Pra Ver o Sol Brilhar
DYEAR=2008
DGENRE=Rap
TTITLE0=PRA VER O SOL BRILHAR
TTITLE1=DEPOIS DO AMOR - PERLLA
TTITLE2=MAGOADA - ALCIONE
TTITLE3=PERFUME
TTITLE4=QUERO TE AMAR - FLAVIA SANTANA
TTITLE5=NAO DA MAIS SEM VOCE - NEGRA LI
TTITLE6=O AMOR E MAIS
TTITLE7=INTRIGA DA OPOSICAO
TTITLE8=DESSE JEITO E RUIM PRA MIM
TTITLE9=RAZAO DA MINHA VIDA
TTITLE10=NADA VAI SEPARAR
TTITLE11=INCONDICIONALMENTE
TTITLE12=SONHOS DE UM PALHACO
TTITLE13=VEM NAO DA MAIS PRA SEGURAR
EXTD=Ao Vivo
EXTT0=
EXTT1=
EXTT2=
EXTT3=
EXTT4=
EXTT5=
EXTT6=
EXTT7=
EXTT8=
EXTT9=
EXTT10=
EXTT11=
EXTT12=
EXTT13=
PLAYORDER=
